HIERARCHY
ROOT Hips
{
  OFFSET 0 0 0
  CHANNELS 6 Xposition Yposition Zposition Zrotation Yrotation Xrotation
  JOINT LeftThigh
  {
    OFFSET 8.509551 0 -5.988202
    CHANNELS 3 Zrotation Yrotation Xrotation
    JOINT LeftLeg
    {
      OFFSET 0 0 -42.862921
      CHANNELS 3 Zrotation Yrotation Xrotation
      JOINT LeftFoot
      {
        OFFSET 0 0 -39.825843
        CHANNELS 3 Zrotation Yrotation Xrotation
        End Site
        {
          OFFSET 0 -13.487303 -5.068483
        }
      }
    }
  }
  JOINT RightThigh
  {
    OFFSET -8.509551 0 -5.988202
    CHANNELS 3 Zrotation Yrotation Xrotation
    JOINT RightLeg
    {
      OFFSET 0 0 -42.862921
      CHANNELS 3 Zrotation Yrotation Xrotation
      JOINT RightFoot
      {
        OFFSET 0 0 -39.825843
        CHANNELS 3 Zrotation Yrotation Xrotation
        End Site
        {
          OFFSET 0 -13.487303 -5.068483
        }
      }
    }
  }
  JOINT SpineLow
  {
    OFFSET 0 0 4.775281
    CHANNELS 3 Zrotation Yrotation Xrotation
    JOINT SpineMid
    {
      OFFSET 0 0 13.052753
      CHANNELS 3 Zrotation Yrotation Xrotation
      JOINT Chest
      {
        OFFSET 0 0 13.052753
        CHANNELS 3 Zrotation Yrotation Xrotation
        JOINT LeftShoulder
        {
          OFFSET 7.640449 1.432584 9.550562
          CHANNELS 3 Zrotation Yrotation Xrotation
          JOINT LeftArm
          {
            OFFSET 9.264045 0 4.297753
            CHANNELS 3 Zrotation Yrotation Xrotation
            JOINT LeftForearm
            {
              OFFSET 0 0 26.078764
              CHANNELS 3 Zrotation Yrotation Xrotation
              JOINT LeftHand
              {
                OFFSET 0 0 25.497135
                CHANNELS 3 Zrotation Yrotation Xrotation
              }
            }
          }
        }
        JOINT RightShoulder
        {
          OFFSET -7.640449 1.432584 9.550562
          CHANNELS 3 Zrotation Yrotation Xrotation
          JOINT RightArm
          {
            OFFSET -9.264045 0 4.297753
            CHANNELS 3 Zrotation Yrotation Xrotation
            JOINT RightForearm
            {
              OFFSET 0 0 -26.078764
              CHANNELS 3 Zrotation Yrotation Xrotation
              JOINT RightHand
              {
                OFFSET 0 0 -25.497135
                CHANNELS 3 Zrotation Yrotation Xrotation
              }
            }
          }
        }
        JOINT Neck
        {
          OFFSET 0 0 15.280899
          CHANNELS 3 Zrotation Yrotation Xrotation
          JOINT Head
          {
            OFFSET 0 0 11.460674
            CHANNELS 3 Zrotation Yrotation Xrotation
            End Site
            {
              OFFSET 0 0 7.325843
            }
          }
        }
      }
    }
  }
}
MOTION
Frames: 7
Frame Time: 0.01
2.023266  92.937531  -1.254835  -2.634925  81.735096  -93.685877  15.01845  -17.550087  6.510462  -5.048817  0.355387  -3.662337  0.784708  9.045668  3.853823  -5.164129  12.778584  2.887623  0.447747  1.364519  1.653242  -4.307185  -11.842992  0.911813  -0.056674  -0.539309  -0.487486  -0.144054  -1.47522  -1.331432  -0.144054  -1.47522  -1.331432  1.257448  9.533561  15.301091  141.566112  29.026971  175.942028  -13.850983  -4.717424  34.209795  74.915564  -12.626838  -12.840797  -0.724611  -7.45104  12.32306  51.031452  34.551336  9.677884  -4.967059  14.577955  -36.632195  84.605758  1.383107  33.2724  -3.453195  0.934155  -2.964632  -2.585379  0.717415  -2.21823  
1.981457  92.943748  -1.240504  -2.334532  81.93274  -93.371117  15.121093  -17.499973  6.423433  -5.237131  0.366843  -3.720358  0.736098  9.014922  3.813315  -5.148999  12.791659  2.920044  0.303262  1.402313  1.627158  -4.352558  -11.801657  0.904869  -0.074247  -0.538624  -0.483131  -0.192205  -1.47369  -1.319136  -0.192205  -1.47369  -1.319136  1.158905  9.574699  15.336075  141.451866  29.144884  176.030275  -13.939825  -4.694233  34.147234  74.874495  -12.632081  -12.803454  -0.745811  -7.422955  12.256554  50.945697  34.577745  9.768394  -4.943607  14.630039  -36.786853  84.549633  1.492637  33.264425  -3.526105  0.924016  -2.994885  -2.640068  0.710339  -2.240872  
2.040267  92.929832  -1.294935  -1.988355  82.165709  -93.021044  15.196707  -17.446342  6.285504  -5.500757  0.400047  -3.738837  0.819709  9.003241  3.810284  -5.28195  12.842618  3.000338  0.059781  1.47658  1.587561  -4.322667  -11.79059  0.870183  -0.10088  -0.531892  -0.476762  -0.265287  -1.455794  -1.301154  -0.265287  -1.455794  -1.301155  1.046423  9.633082  15.379551  141.489829  29.298558  176.164896  -14.035414  -4.65078  34.105831  74.99012  -12.670244  -12.751346  -0.809456  -7.387232  12.15018  50.96642  34.536327  9.895219  -4.924292  14.706458  -36.992985  84.43858  1.546148  33.268002  -3.529118  0.921514  -3.032591  -2.642286  0.708696  -2.269162  
2.011567  92.9319  -1.286011  -1.650098  82.344447  -92.662242  15.199083  -17.355129  6.228414  -5.594569  0.386071  -3.791404  0.787363  8.945215  3.781803  -5.377257  12.870215  3.015906  -0.067206  1.511733  1.534689  -4.267945  -11.779457  0.863346  -0.109621  -0.525093  -0.472924  -0.289397  -1.437366  -1.290493  -0.289397  -1.437366  -1.290493  0.951572  9.643707  15.383426  141.394578  29.422437  176.246355  -14.052567  -4.635917  34.070705  74.932622  -12.680462  -12.672037  -0.844936  -7.391001  12.069009  50.867172  34.52902  9.984562  -4.93494  14.796656  -37.168373  84.408385  1.591685  33.276835  -3.62432  0.892551  -3.051317  -2.713809  0.687558  -2.283243  
2.035216  92.923988  -1.322326  -1.202204  82.56887  -92.203208  15.142201  -17.256796  6.132097  -5.762011  0.39157  -3.828206  0.920652  8.900916  3.822265  -5.64524  12.985706  3.065369  -0.126618  1.490436  1.432112  -4.172908  -11.785275  0.866312  -0.130318  -0.510539  -0.468997  -0.346342  -1.397969  -1.279376  -0.346342  -1.397969  -1.279376  0.809435  9.689069  15.389126  141.484724  29.576123  176.339709  -14.002909  -4.590886  34.104777  75.019167  -12.670503  -12.766824  -0.953854  -7.368827  11.968704  50.930598  34.460018  10.087636  -4.958427  14.87184  -37.3646  84.255435  1.51736  33.334842  -3.639439  0.869198  -3.066609  -2.725247  0.670209  -2.294833  
2.009488  92.9198  -1.325762  -0.821959  82.706244  -91.795191  15.041335  -17.159072  6.107042  -5.763631  0.378142  -3.883037  0.928219  8.834805  3.820797  -5.778396  13.05676  3.054726  -0.137764  1.463128  1.376073  -4.147243  -11.776275  0.84747  -0.127245  -0.500378  -0.468573  -0.338147  -1.370137  -1.278328  -0.338147  -1.370137  -1.278328  0.709768  9.692885  15.386177  141.398449  29.701536  176.398415  -13.965838  -4.605104  34.106649  75.026801  -12.68452  -12.781894  -1.006068  -7.379735  11.918564  50.830782  34.455208  10.135562  -5.03433  14.931385  -37.511664  84.247355  1.521173  33.378912  -3.755989  0.827636  -3.06641  -2.812874  0.639621  -2.294783  
2.035148  92.90226  -1.396536  -0.449374  82.804197  -91.39225  15.029233  -17.097738  6.014839  -5.825981  0.392946  -3.906834  1.112154  8.783418  3.87301  -6.021959  13.192554  3.048924  -0.041068  1.383858  1.27145  -4.190226  -11.750985  0.86291  -0.126371  -0.486172  -0.469716  -0.336006  -1.331295  -1.281537  -0.336006  -1.331295  -1.281537  0.589738  9.727082  15.374551  141.43954  29.845484  176.471148  -13.905957  -4.574201  34.136241  75.120201  -12.62266  -12.990624  -1.021166  -7.413413  11.879871  50.74829  34.474224  10.203215  -5.136077  14.948104  -37.662016  84.144529  1.540385  33.386583  -3.776078  0.789645  -3.063122  -2.82814  0.611206  -2.292529  
